<svg width="52" height="68" viewBox="0 0 52 68" fill="none" xmlns="http://www.w3.org/2000/svg">
<g clip-path="url(#clip0)">
<path d="M31.9945 1.85437L0.895818 32.953C0.316791 33.5321 0.316791 34.4695 0.895818 35.047L9.16806 43.3193C9.74709 43.8983 10.6845 43.8983 11.262 43.3193L50.633 3.94835C51.5659 3.01539 50.9054 1.42047 49.586 1.42047H33.0415C32.649 1.42047 32.2729 1.57596 31.9945 1.85437ZM50.633 33.5661L25.0239 59.1751L15.7047 49.8559C15.1257 49.2769 15.1257 48.3395 15.7047 47.7619L31.9945 31.4722C32.2729 31.1937 32.649 31.0383 33.0415 31.0383H49.586C50.9054 31.0383 51.5659 32.6332 50.633 33.5661ZM50.633 64.0517L39.8328 53.2516L25.0239 59.1751L31.9945 66.1457C32.2729 66.4241 32.649 66.5796 33.0415 66.5796H49.586C50.9054 66.5796 51.5659 64.9847 50.633 64.0517Z" fill="#343A40"/>
</g>
<defs>
<clipPath id="clip0">
<rect width="51.3778" height="68" fill="white"/>
</clipPath>
</defs>
</svg>
