<svg width="70" height="68" viewBox="0 0 70 68" fill="none" xmlns="http://www.w3.org/2000/svg">
<path d="M34.6415 0.769806C15.9358 0.769806 0.769775 15.9359 0.769775 34.6415C0.769775 50.5132 11.699 63.7937 26.4332 67.4688C26.2752 67.0116 26.1735 66.4809 26.1735 65.8232V60.034C24.7989 60.034 22.4956 60.034 21.917 60.034C19.5996 60.034 17.5391 59.0376 16.5399 57.1859C15.4306 55.1282 15.2386 51.981 12.4894 50.0559C11.6736 49.4152 12.2946 48.6841 13.2346 48.7829C14.9705 49.2741 16.41 50.4652 17.7649 52.2322C19.1141 54.002 19.7492 54.4028 22.2698 54.4028C23.492 54.4028 25.3211 54.3322 27.0429 54.0613C27.9687 51.71 29.5692 49.545 31.5253 48.5233C20.246 47.3631 14.8632 41.7517 14.8632 34.1334C14.8632 30.8535 16.2604 27.6809 18.6343 25.0078C17.8552 22.3545 16.8758 16.9435 18.9335 14.883C24.0086 14.883 27.0768 18.1742 27.8135 19.0633C30.3426 18.1968 33.1201 17.7057 36.0387 17.7057C38.9629 17.7057 41.7517 18.1968 44.2864 19.069C45.0147 18.1855 48.0857 14.883 53.1721 14.883C55.2383 16.9464 54.2475 22.3799 53.46 25.0276C55.8197 27.695 57.2085 30.8592 57.2085 34.1334C57.2085 41.7461 51.8342 47.3547 40.5718 48.5204C43.6711 50.1378 45.932 54.6823 45.932 58.1061V65.8232C45.932 66.1168 45.8671 66.3285 45.8332 66.5797C59.0319 61.9534 68.5132 49.4209 68.5132 34.6415C68.5132 15.9359 53.3471 0.769806 34.6415 0.769806Z" fill="#343A40"/>
</svg>
