<svg width="66" height="66" viewBox="0 0 66 66" fill="none" xmlns="http://www.w3.org/2000/svg">
<path d="M61.6041 0.23999H4.40202C2.10468 0.23999 0.23999 2.10468 0.23999 4.40202V61.598C0.23999 63.8953 2.10468 65.76 4.40202 65.76H61.598C63.8953 65.76 65.76 63.8953 65.76 61.6041V4.40202C65.76 2.10468 63.8953 0.23999 61.6041 0.23999ZM36.12 50.4464C36.12 56.6803 32.4637 59.52 27.1256 59.52C22.2994 59.52 18.8198 56.2842 17.4 53.28L22.3055 50.3123C23.25 51.9881 24.6881 53.28 26.76 53.28C28.7405 53.28 29.88 52.5061 29.88 49.4958V29.88H36.12V50.4464ZM49.6542 59.52C44.1272 59.52 40.9889 56.7351 39.24 53.28L43.92 50.16C45.1936 52.2441 46.583 54.2367 49.5201 54.2367C51.9881 54.2367 53.28 53.0058 53.28 51.2995C53.28 49.2642 51.9394 48.5391 49.2276 47.3508L47.7408 46.7109C43.4447 44.8828 40.5867 42.5916 40.5867 37.7409C40.5867 33.2803 43.9931 29.88 49.3069 29.88C53.0911 29.88 55.8089 31.1962 57.7711 34.6453L53.1398 37.6251C52.1161 35.7909 51.0192 35.0719 49.3069 35.0719C47.5641 35.0719 46.4611 36.1809 46.4611 37.6251C46.4611 39.4106 47.5641 40.1297 50.1173 41.2387L51.6042 41.8786C56.6681 44.0419 59.52 46.2539 59.52 51.2264C59.52 56.5828 55.3092 59.52 49.6542 59.52Z" fill="#343A40"/>
</svg>
