<svg width="75" height="68" viewBox="0 0 75 68" fill="none" xmlns="http://www.w3.org/2000/svg">
<path fill-rule="evenodd" clip-rule="evenodd" d="M52.3267 0.33764C51.0778 0.295646 49.7705 0.513383 48.4599 0.938306C45.8385 1.78816 43.0916 3.4443 40.2727 5.73738C39.1679 6.63604 38.0531 7.6633 36.9346 8.75323C35.8407 7.69097 34.7488 6.69129 33.6685 5.81247C30.8517 3.52123 28.1123 1.86444 25.4969 1.01652C22.8815 0.168594 20.2792 0.14232 18.1418 1.37629C16.0045 2.61026 14.7264 4.87544 14.153 7.56441C13.5797 10.2534 13.6428 13.4556 14.2187 17.0406C14.4188 18.2858 14.7041 19.5921 15.029 20.923C13.8078 21.2931 12.6218 21.6823 11.522 22.1118C8.20296 23.4081 5.45666 24.959 3.4568 26.8045C1.45694 28.65 0.165649 30.8898 0.165649 33.3493C0.165649 35.8087 1.45694 38.0454 3.4568 39.8909C5.45666 41.7364 8.20296 43.2904 11.522 44.5867C12.698 45.0461 13.9712 45.4596 15.2856 45.8506C14.8128 47.6172 14.4297 49.3314 14.1687 50.9563C13.5923 54.5442 13.5314 57.7468 14.1061 60.4418C14.6808 63.1369 15.9596 65.4149 18.1074 66.655C20.2553 67.8951 22.8693 67.8646 25.4906 67.0148C28.112 66.1649 30.8557 64.5119 33.6747 62.2188C34.7693 61.3284 35.8765 60.3127 36.9846 59.2342C38.0986 60.3192 39.2102 61.3397 40.3102 62.2345C43.1269 64.5257 45.8695 66.1793 48.4849 67.0273C51.1003 67.8752 53.7026 67.9015 55.8399 66.6675C57.9772 65.4335 59.2522 63.1683 59.8256 60.4794C60.399 57.7904 60.3358 54.5913 59.7599 51.0064C59.4982 49.377 59.1149 47.6571 58.6399 45.8851C59.9977 45.4845 61.3111 45.0598 62.5223 44.5867C65.8414 43.2904 68.5877 41.7364 70.5875 39.8909C72.5874 38.0454 73.8787 35.8087 73.8787 33.3493C73.8787 30.8898 72.5874 28.65 70.5875 26.8045C68.5877 24.959 65.8414 23.4081 62.5223 22.1118C61.4068 21.6761 60.2026 21.2819 58.9621 20.9073C59.2897 19.5683 59.5806 18.2526 59.7818 16.9999C60.3582 13.412 60.4191 10.2063 59.8444 7.51123C59.2697 4.81616 57.9878 2.54128 55.8399 1.30121C54.766 0.681173 53.5755 0.379633 52.3267 0.33764ZM52.1796 3.59751C52.9633 3.61894 53.6319 3.80543 54.2037 4.1356C55.3475 4.79595 56.1929 6.08116 56.644 8.19636C57.095 10.3116 57.0794 13.1694 56.547 16.4837C56.3647 17.6184 56.1 18.8211 55.7993 20.0533C52.5228 19.2648 48.9326 18.6796 45.1061 18.3357C43.1852 15.6746 41.2115 13.2502 39.2215 11.0996C40.2741 10.0721 41.3198 9.11114 42.3406 8.28083C44.9446 6.1626 47.4099 4.72126 49.4672 4.05426C50.4959 3.72077 51.3959 3.57608 52.1796 3.59751ZM21.7834 3.60689C22.5716 3.58489 23.4735 3.72919 24.5052 4.06365C26.5684 4.73257 29.038 6.17327 31.6443 8.29334C32.6446 9.10699 33.6669 10.0497 34.6977 11.0527C32.693 13.2209 30.7029 15.6663 28.7693 18.3514C24.959 18.7015 21.3834 19.2898 18.1231 20.0814C17.8246 18.856 17.5599 17.6596 17.3785 16.5306C16.8456 13.2135 16.8323 10.3552 17.2846 8.2339C17.737 6.1126 18.5893 4.8177 19.7436 4.15125C20.3208 3.81802 20.9952 3.6289 21.7834 3.60689ZM36.9846 13.4053C38.2895 14.8252 39.5946 16.3791 40.889 18.051C39.6171 17.998 38.3297 17.9666 37.0222 17.9666C35.6886 17.9666 34.3767 17.999 33.0803 18.0542C34.375 16.3809 35.6795 14.8263 36.9846 13.4053ZM37.0222 21.2014C39.2004 21.2014 41.3235 21.2909 43.3886 21.4423C44.8096 23.4832 46.1982 25.6484 47.5213 27.9401C48.6839 29.9538 49.736 31.9644 50.6936 33.9499C49.7259 35.9618 48.6562 37.9996 47.4775 40.0411C46.44 41.8381 45.3565 43.5449 44.2552 45.1905C41.9225 45.3855 39.5054 45.494 37.0222 45.494C34.4792 45.494 32.0078 45.3791 29.6233 45.1749C28.5404 43.5529 27.4752 41.872 26.4542 40.1036C25.2782 38.0668 24.2137 36.0328 23.2475 34.025C24.2177 32.0059 25.2871 29.9606 26.4698 27.912C27.786 25.6323 29.1706 23.4796 30.5838 21.4486C32.6711 21.2938 34.8189 21.2014 37.0222 21.2014ZM47.5119 21.8428C50.1524 22.1722 52.6316 22.6296 54.9389 23.1786C54.2543 25.4229 53.411 27.7672 52.3892 30.1864C51.7258 28.9075 51.0387 27.6243 50.2963 26.3384C49.3966 24.78 48.4595 23.2944 47.5119 21.8428ZM26.3603 21.8678C25.4328 23.2923 24.52 24.7491 23.6386 26.2758C22.8866 27.5782 22.1853 28.8787 21.5143 30.1739C20.5014 27.7692 19.6632 25.4383 18.9834 23.2068C21.2735 22.6568 23.7383 22.201 26.3603 21.8678ZM58.1081 24.0296C59.2435 24.3731 60.3402 24.7316 61.346 25.1245C64.4057 26.3195 66.8259 27.7346 68.3945 29.1821C69.9631 30.6297 70.6439 32.0101 70.6439 33.3493C70.6439 34.6884 69.9631 36.0689 68.3945 37.5164C66.8259 38.9639 64.4057 40.379 61.346 41.574C60.2282 42.0106 59.0001 42.4065 57.7233 42.7816C56.8125 39.9644 55.6499 37.0254 54.2663 34.025C55.8571 30.5803 57.1422 27.2217 58.1081 24.0296ZM15.8831 24.0452C16.8379 27.2055 18.1065 30.5307 19.6748 33.9406C18.2821 36.9584 17.1138 39.9142 16.1991 42.7472C14.9672 42.382 13.7807 41.9968 12.6983 41.574C9.63867 40.379 7.21846 38.9639 5.64986 37.5164C4.08126 36.0689 3.40049 34.6884 3.40049 33.3493C3.40049 32.0101 4.08126 30.6297 5.64986 29.1821C7.21846 27.7346 9.63867 26.3195 12.6983 25.1245C13.6887 24.7377 14.7669 24.3843 15.8831 24.0452ZM37.0222 25.9911C32.618 25.9911 29.0133 29.5958 29.0133 34C29.0133 38.4042 32.618 42.0089 37.0222 42.0089C41.4264 42.0089 45.0311 38.4042 45.0311 34C45.0311 29.5958 41.4264 25.9911 37.0222 25.9911ZM21.5519 37.7886C22.2257 39.0902 22.9266 40.3963 23.6824 41.7054C24.2737 42.7296 24.8776 43.7266 25.4906 44.7056C23.3395 44.4073 21.2947 44.0297 19.3745 43.5825C19.9851 41.7123 20.7157 39.7709 21.5519 37.7886ZM52.4299 37.7886C53.2695 39.7756 54.0004 41.7201 54.6136 43.595C52.6873 44.0417 50.6362 44.418 48.4786 44.715C49.0997 43.724 49.713 42.7146 50.3119 41.6773C51.0622 40.3778 51.7603 39.0807 52.4299 37.7886ZM18.4516 46.6922C21.3505 47.379 24.4926 47.9065 27.8245 48.2502C30.0486 51.4672 32.3658 54.3578 34.6977 56.8848C33.6549 57.9015 32.6214 58.8557 31.6099 59.6785C29.0059 61.7967 26.5375 63.2349 24.4801 63.9019C22.4228 64.5689 20.8874 64.4809 19.7436 63.8206C18.5999 63.1602 17.7576 61.875 17.3065 59.7598C16.8555 57.6446 16.868 54.7899 17.4004 51.4756C17.6419 49.9721 18.0029 48.3621 18.4516 46.6922ZM55.5396 46.7047C55.992 48.3848 56.354 50.0007 56.597 51.5132C57.1299 54.8303 57.1432 57.6886 56.6909 59.8099C56.2385 61.9312 55.3925 63.2292 54.2382 63.8957C53.0838 64.5621 51.5336 64.6491 49.4704 63.9801C47.4071 63.3112 44.9375 61.8705 42.3312 59.7504C41.3124 58.9218 40.2717 57.9598 39.2215 56.9348C41.5691 54.398 43.9026 51.4926 46.1417 48.2564C49.4819 47.915 52.6328 47.3907 55.5396 46.7047ZM32.0041 48.5787C33.6488 48.6683 35.3151 48.7288 37.0222 48.7288C38.6728 48.7288 40.2851 48.6719 41.8776 48.5881C40.2497 50.7844 38.5904 52.7811 36.9377 54.5791C35.286 52.7772 33.6298 50.777 32.0041 48.5787Z" fill="#343A40"/>
</svg>
