<svg width="233" height="275" viewBox="0 0 233 275" fill="none" xmlns="http://www.w3.org/2000/svg">
<path d="M16.9963 89.2703C7.53137 89.2703 0 96.8077 0 106.28V177.134C0 186.606 7.53137 194.144 16.9963 194.144C26.4612 194.144 33.9926 186.606 33.9926 177.134V106.28C33.9926 96.8077 26.4612 89.2703 16.9963 89.2703ZM215.226 89.2703C205.761 89.2703 198.23 96.8077 198.23 106.28V177.134C198.23 186.606 205.761 194.144 215.226 194.144C224.691 194.144 232.222 186.606 232.222 177.134V106.28C232.222 96.8077 224.691 89.2703 215.226 89.2703Z" fill="#343A40"/>
<path d="M87.792 170.126C78.3271 170.126 70.7957 177.664 70.7957 187.137V257.99C70.7957 267.463 78.3271 275 87.792 275C97.257 275 104.788 267.463 104.788 257.99V187.137C104.788 177.664 97.257 170.126 87.792 170.126ZM144.429 170.126C134.964 170.126 127.433 177.664 127.433 187.137V257.99C127.433 267.463 134.964 275 144.429 275C153.894 275 161.425 267.463 161.425 257.99V187.137C161.425 177.664 153.894 170.126 144.429 170.126Z" fill="#343A40"/>
<path d="M69.0519 0.000118075C68.6502 0.00423027 68.2758 0.107973 67.9067 0.312703C66.6947 0.985055 66.2962 2.37888 66.9697 3.5949L78.9426 25.2417C55.9073 37.2373 40.3482 60.0337 40.317 86.1965H191.904C191.873 60.0337 176.314 37.2373 153.279 25.2417L165.252 3.5949C165.925 2.37888 165.527 0.985055 164.315 0.312703C163.946 0.107973 163.571 0.00395064 163.169 0.000118075C162.309 -0.00818857 161.494 0.421915 161.035 1.25047L148.906 23.1317C138.984 18.727 127.855 16.2548 116.111 16.2548C104.366 16.2548 93.2374 18.727 83.3153 23.1317L71.1862 1.25047C70.7273 0.421915 69.912 -0.00813921 69.0519 0.000118075ZM40.317 92.1878V202.141C40.317 212.301 48.4894 220.48 58.6407 220.48H173.581C183.732 220.48 191.904 212.301 191.904 202.141V92.1878H40.317Z" fill="#343A40"/>
<path d="M81.1286 45.7683C77.6682 45.7683 74.8038 48.635 74.8038 52.0982C74.8038 55.5615 77.6682 58.4282 81.1286 58.4282C84.5891 58.4282 87.4535 55.5615 87.4535 52.0982C87.4535 48.635 84.5891 45.7683 81.1286 45.7683ZM151.092 45.7683C147.632 45.7683 144.767 48.635 144.767 52.0982C144.767 55.5615 147.632 58.4282 151.092 58.4282C154.552 58.4282 157.417 55.5615 157.417 52.0982C157.417 48.635 154.552 45.7683 151.092 45.7683Z" fill="white"/>
</svg>
