<svg width="57" height="65" viewBox="0 0 57 65" fill="none" xmlns="http://www.w3.org/2000/svg">
<path d="M47.654 16.388C46.0487 14.2093 43.956 12.6327 41.376 11.658C38.796 10.626 36.2733 10.11 33.808 10.11C30.6547 10.11 27.788 10.6833 25.208 11.83C22.628 12.9767 20.392 14.5533 18.5 16.56C16.6653 18.5667 15.232 20.9173 14.2 23.612C13.2253 26.3067 12.738 29.2307 12.738 32.384C12.738 35.7093 13.2253 38.748 14.2 41.5C15.1747 44.252 16.5507 46.6313 18.328 48.638C20.1627 50.5873 22.3413 52.1067 24.864 53.196C27.3867 54.2853 30.2247 54.83 33.378 54.83C36.646 54.83 39.5413 54.1993 42.064 52.938C44.5867 51.6193 46.622 49.8993 48.17 47.778L56.856 53.884C54.1613 57.2667 50.8647 59.904 46.966 61.796C43.0673 63.6307 38.5093 64.548 33.292 64.548C28.5333 64.548 24.1473 63.774 20.134 62.226C16.178 60.6207 12.7667 58.4133 9.9 55.604C7.03333 52.7373 4.79733 49.3547 3.192 45.456C1.58667 41.5 0.784 37.1427 0.784 32.384C0.784 27.5107 1.61533 23.1247 3.278 19.226C4.998 15.27 7.32 11.916 10.244 9.164C13.2253 6.412 16.7227 4.29066 20.736 2.8C24.7493 1.30933 29.1067 0.563999 33.808 0.563999C35.7573 0.563999 37.7927 0.764665 39.914 1.166C42.0353 1.51 44.0707 2.08333 46.02 2.88599C47.9693 3.63133 49.804 4.57733 51.524 5.724C53.244 6.87066 54.706 8.24666 55.91 9.852L47.654 16.388Z" fill="#343A40"/>
</svg>
