<svg width="166" height="65" viewBox="0 0 166 65" fill="none" xmlns="http://www.w3.org/2000/svg">
<path d="M46.9362 16.388C45.3309 14.2093 43.2382 12.6327 40.6582 11.658C38.0782 10.626 35.5556 10.11 33.0902 10.11C29.9369 10.11 27.0702 10.6833 24.4902 11.83C21.9102 12.9767 19.6742 14.5533 17.7822 16.56C15.9476 18.5667 14.5142 20.9173 13.4822 23.612C12.5076 26.3067 12.0202 29.2307 12.0202 32.384C12.0202 35.7093 12.5076 38.748 13.4822 41.5C14.4569 44.252 15.8329 46.6313 17.6102 48.638C19.4449 50.5873 21.6236 52.1067 24.1462 53.196C26.6689 54.2853 29.5069 54.83 32.6602 54.83C35.9282 54.83 38.8236 54.1993 41.3462 52.938C43.8689 51.6193 45.9042 49.8993 47.4522 47.778L56.1382 53.884C53.4436 57.2667 50.1469 59.904 46.2482 61.796C42.3496 63.6307 37.7916 64.548 32.5742 64.548C27.8156 64.548 23.4296 63.774 19.4162 62.226C15.4602 60.6207 12.0489 58.4133 9.18223 55.604C6.31556 52.7373 4.07956 49.3547 2.47423 45.456C0.868894 41.5 0.0662269 37.1427 0.0662269 32.384C0.0662269 27.5107 0.89756 23.1247 2.56023 19.226C4.28023 15.27 6.60223 11.916 9.52623 9.164C12.5076 6.412 16.0049 4.29066 20.0182 2.8C24.0316 1.30933 28.3889 0.563999 33.0902 0.563999C35.0396 0.563999 37.0749 0.764665 39.1962 1.166C41.3176 1.51 43.3529 2.08333 45.3022 2.88599C47.2516 3.63133 49.0862 4.57733 50.8062 5.724C52.5262 6.87066 53.9882 8.24666 55.1922 9.852L46.9362 16.388ZM80.4151 32.556V13.636H89.1871V32.556H108.107V41.328H89.1871V60.248H80.4151V41.328H61.4951V32.556H80.4151ZM137.692 32.556V13.636H146.464V32.556H165.384V41.328H146.464V60.248H137.692V41.328H118.772V32.556H137.692Z" fill="#343A40"/>
</svg>
