<svg width="45" height="67" viewBox="0 0 45 67" fill="none" xmlns="http://www.w3.org/2000/svg">
<path d="M11.07 66.397C17.1807 66.397 22.14 61.4393 22.14 55.3308V44.2646H11.07C4.95937 44.2646 0 49.2223 0 55.3308C0 61.4393 4.95937 66.397 11.07 66.397Z" fill="#333333"/>
<path d="M0 33.1985C0 27.09 4.95937 22.1323 11.07 22.1323H22.14V44.2646H11.07C4.95937 44.2646 0 39.307 0 33.1985Z" fill="#333333"/>
<path d="M0 11.0662C0 4.95764 4.95937 0 11.07 0H22.14V22.1323H11.07C4.95937 22.1323 0 17.1747 0 11.0662Z" fill="#333333"/>
<path d="M22.14 0H33.21C39.3207 0 44.2801 4.95764 44.2801 11.0662C44.2801 17.1747 39.3207 22.1323 33.21 22.1323H22.14V0Z" fill="#333333"/>
<path d="M44.2801 33.1985C44.2801 39.307 39.3207 44.2646 33.21 44.2646C27.0994 44.2646 22.14 39.307 22.14 33.1985C22.14 27.09 27.0994 22.1323 33.21 22.1323C39.3207 22.1323 44.2801 27.09 44.2801 33.1985Z" fill="#333333"/>
</svg>
