<svg width="53" height="68" viewBox="0 0 53 68" fill="none" xmlns="http://www.w3.org/2000/svg">
<g clip-path="url(#clip0)">
<path d="M30.6583 1.0097C34.3425 9.5346 17.4393 14.7992 15.8745 21.9059C14.4302 28.4265 25.9066 36.0094 25.9118 36.0094C24.1692 33.3091 22.908 31.0797 21.1601 26.8775C18.2033 19.7708 39.1571 13.3444 30.6583 1.0097ZM41.8626 12.8211C41.8626 12.8211 27.0631 13.7578 26.3095 23.2299C25.9746 27.4479 30.1978 29.6982 30.3234 32.7701C30.4176 35.2715 27.7958 37.3596 27.7958 37.3596C27.7958 37.3596 32.5528 36.4647 34.0442 32.6392C35.6927 28.3951 30.8467 25.4959 31.3334 22.0995C31.8044 18.8497 41.8626 12.8211 41.8626 12.8211ZM45.4526 34.7011C43.9036 34.6331 42.1819 35.1459 40.6224 36.2658C43.6786 35.6117 46.2638 37.4799 46.2638 39.636C46.2638 44.4924 39.246 49.082 39.246 49.082C39.246 49.082 50.1102 47.8417 50.1102 39.8663C50.1102 36.5694 48.0274 34.8215 45.4526 34.7011ZM18.5958 34.7116C18.5958 34.7116 5.03655 34.5284 5.03655 38.3644C5.03655 42.373 22.7928 42.6556 35.4729 40.1855C35.4729 40.1855 38.8588 37.8672 39.7589 37.0037C31.4486 38.6993 12.4834 38.9243 12.4834 37.459C12.4834 36.1036 18.5958 34.7116 18.5958 34.7116ZM15.3198 42.1741C13.2422 42.1741 10.1389 43.7807 10.1389 45.3298C10.1389 48.4435 25.8019 50.8456 37.3987 46.2927L33.3848 43.8331C25.5246 46.3502 11.0338 45.5443 15.3198 42.1741ZM17.2509 49.1395C14.3988 49.1395 12.5514 50.8979 12.5514 52.1957C12.5514 56.1939 29.5751 56.5969 36.3207 52.5306L32.0347 49.8041C26.9951 51.9341 14.3412 52.2219 17.2509 49.1395ZM7.75259 52.7609C3.1055 52.6667 0.0859379 54.7548 0.0859379 56.487C0.0807037 65.6974 47.6767 65.2526 47.6767 55.838C47.6767 54.2785 45.8346 53.5354 45.17 53.1796C49.0583 62.1807 6.25066 61.4847 6.25066 56.173C6.25066 54.9641 9.39058 53.7762 12.3107 54.3466L9.83541 52.9388C9.10799 52.8289 8.41197 52.7714 7.75259 52.7609ZM52.6954 58.957C45.4579 65.8125 27.1207 68.314 8.67887 64.0803C27.1155 71.6214 52.6012 67.3773 52.6954 58.957Z" fill="#343A40"/>
</g>
<defs>
<clipPath id="clip0">
<rect width="52.7761" height="68" fill="white"/>
</clipPath>
</defs>
</svg>
