<svg width="68" height="68" viewBox="0 0 68 68" fill="none" xmlns="http://www.w3.org/2000/svg">
<path d="M34.4214 1.24595C31.6957 1.25639 29.0222 1.51748 26.7351 1.91432C19.9991 3.09442 18.7982 5.55906 18.7982 10.1019V17.1199H34.8392V19.9605H11.1954C6.56896 19.9605 2.44383 22.7489 1.16974 27.981C-0.292336 33.9755 -0.354998 37.6724 1.16974 43.9385C2.30806 48.5962 5.06512 51.959 9.69153 51.959H16.0411V43.1865C16.0411 37.9857 20.584 33.1609 25.9832 33.1609H40.0191C44.4471 33.1609 48.0396 29.5371 48.0396 25.1404V10.1019C48.0396 5.83059 44.3427 2.63491 40.0191 1.91432C37.2829 1.46526 37.1472 1.2355 34.4214 1.24595ZM25.3984 7.51197C27.038 7.51197 28.4061 8.85917 28.4061 10.5197C28.4061 12.1697 27.038 13.5274 25.3984 13.5274C23.7483 13.5274 22.3907 12.1697 22.3907 10.5197C22.3907 8.85917 23.7483 7.51197 25.3984 7.51197ZM50.7967 17.2034V25.9759C50.7967 31.1767 46.2538 36.0015 40.8546 36.0015H26.8187C22.3907 36.0015 18.7982 39.6254 18.7982 44.022V59.0605C18.7982 63.3318 22.4951 66.5379 26.8187 67.2481C29.5548 67.6971 29.6906 67.9373 32.4163 67.9165C35.142 67.906 37.8155 67.6449 40.1026 67.2481C46.8386 66.0784 48.0396 63.6033 48.0396 59.0605V52.0425H31.9986V49.2019H55.6424C60.2688 49.2019 64.3939 46.4135 65.668 41.1814C67.1301 35.1869 67.1928 31.49 65.668 25.2239C64.5297 20.5662 61.7726 17.2034 57.1462 17.2034H50.7967ZM41.4394 55.635C43.0895 55.635 44.4471 56.9927 44.4471 58.6427C44.4471 60.3032 43.0895 61.6504 41.4394 61.6504C39.7998 61.6504 38.4317 60.3032 38.4317 58.6427C38.4317 56.9927 39.7998 55.635 41.4394 55.635Z" fill="#343A40"/>
</svg>
