<svg width="73" height="65" viewBox="0 0 73 65" fill="none" xmlns="http://www.w3.org/2000/svg">
<path d="M0.178223 41.855C5.66748 50.8374 20.0322 64.6675 39.3872 64.6675C51.7202 64.6675 55.1064 58.8574 62.2354 58.8574C68.188 58.8574 70.5762 62.8853 71.4673 64.4536C71.7524 64.9883 72.2158 65.2734 72.4653 64.3467C72.6436 63.6338 72.7861 62.7427 72.7861 61.6021C72.7861 58.4653 71.8237 52.4771 66.6196 45.9185C67.7246 42.6748 67.8672 39.146 67.8672 37.0073C67.8672 27.4902 62.5205 10.9155 44.7695 0.222168C48.4409 5.46191 53.3955 13.375 53.3955 24.3892C53.3955 28.3813 52.3262 32.8013 51.3994 34.9756C41.7754 29.3794 23.2759 14.0166 15.9331 6.13916C21.8501 15.2285 28.8721 23.4624 36.6782 32.124C26.1987 25.5298 16.4321 18.1157 7.30713 9.95312C16.04 22.6069 27.0542 35.0825 41.6328 46.8096C37.4268 49.1265 33.1494 50.9443 25.8423 50.9443C16.9668 50.9443 6.09521 46.6313 0.178223 41.855Z" fill="#343A40"/>
</svg>
