<svg width="98" height="36" viewBox="0 0 98 36" fill="none" xmlns="http://www.w3.org/2000/svg">
<g clip-path="url(#clip0)">
<path d="M4.05928 21.9541C6.31514 25.6455 12.2185 31.3291 20.1726 31.3291C25.2409 31.3291 26.6325 28.9414 29.5622 28.9414C32.0085 28.9414 32.9899 30.5967 33.3562 31.2412C33.4733 31.4609 33.6638 31.5781 33.7663 31.1973C33.8396 30.9043 33.8981 30.5381 33.8981 30.0693C33.8981 28.7803 33.5026 26.3193 31.364 23.624C31.8181 22.291 31.8767 20.8408 31.8767 19.9619C31.8767 16.0508 29.6794 9.23926 22.3845 4.84473C23.8933 6.99805 25.9294 10.25 25.9294 14.7764C25.9294 16.417 25.4899 18.2334 25.1091 19.127C21.154 16.8271 13.5515 10.5137 10.5339 7.27637C12.9655 11.0117 15.8513 14.3955 19.0593 17.9551C14.7526 15.2451 10.739 12.1982 6.98897 8.84375C10.5778 14.0439 15.1042 19.1709 21.0954 23.9902C19.3669 24.9424 17.6091 25.6895 14.6062 25.6895C10.9587 25.6895 6.49092 23.917 4.05928 21.9541Z" fill="#F8F8F8"/>
<path d="M77.0047 33.9219H87.8592C90.2469 33.9219 91.8436 32.3984 91.8436 30.1133V6.71973C91.8436 4.43457 90.2469 2.91113 87.8592 2.91113H77.0047C74.617 2.91113 73.0203 4.43457 73.0203 6.71973V30.1133C73.0203 32.3984 74.617 33.9219 77.0047 33.9219ZM77.3123 31.5635C76.0672 31.5635 75.3787 30.9043 75.3787 29.7324V7.10059C75.3787 5.92871 76.0672 5.26953 77.3123 5.26953H77.8983V5.94336C77.8983 6.55859 78.2938 6.96875 78.909 6.96875H85.9842C86.5848 6.96875 86.9803 6.55859 86.9803 5.94336V5.26953H87.5662C88.7967 5.26953 89.4852 5.92871 89.4852 7.10059V29.7324C89.4852 30.9043 88.7967 31.5635 87.5662 31.5635H77.3123ZM78.5868 30.4941H86.3065C86.702 30.4941 86.9803 30.2158 86.9803 29.8057C86.9803 29.3955 86.702 29.1318 86.3065 29.1318H78.5868C78.1912 29.1318 77.8983 29.3955 77.8983 29.8057C77.8983 30.2158 78.1912 30.4941 78.5868 30.4941Z" fill="#F8F8F8"/>
</g>
<defs>
<clipPath id="clip0">
<rect width="97.9279" height="36" fill="white"/>
</clipPath>
</defs>
</svg>
