<svg width="181" height="181" viewBox="0 0 181 181" fill="none" xmlns="http://www.w3.org/2000/svg">
<path d="M90.2298 180.46C139.708 180.46 180.547 139.621 180.547 90.2298C180.547 40.839 139.621 0 90.1425 0C40.7517 0 0 40.839 0 90.2298C0 139.621 40.839 180.46 90.2298 180.46ZM90.2298 162.483C50.1761 162.483 18.1507 130.283 18.1507 90.2298C18.1507 50.1761 50.1761 18.0634 90.1425 18.0634C130.196 18.0634 162.396 50.1761 162.483 90.2298C162.571 130.283 130.283 162.483 90.2298 162.483ZM90.2298 45.5512C85.7794 45.5512 82.4634 48.6927 82.4634 53.1431V94.2439L83.2487 112.045L75.3951 102.359L65.6216 92.1496C64.3127 90.7534 62.4802 89.8807 60.2986 89.8807C56.1973 89.8807 53.1431 92.9349 53.1431 96.949C53.1431 99.0433 53.7539 100.789 55.2374 102.272L84.0341 131.418C86.0411 133.425 87.8737 134.385 90.2298 134.385C92.6731 134.385 94.6802 133.338 96.5127 131.418L125.309 102.272C126.706 100.789 127.404 99.0433 127.404 96.949C127.404 92.9349 124.35 89.8807 120.248 89.8807C118.067 89.8807 116.234 90.6661 114.925 92.1496L105.239 102.272L97.2981 112.133L98.0834 94.2439V53.1431C98.0834 48.6927 94.7674 45.5512 90.2298 45.5512Z" fill="#009DFE"/>
</svg>
