<svg width="1647" height="850" viewBox="0 0 1647 850" fill="none" xmlns="http://www.w3.org/2000/svg">
<rect width="1647" height="850" rx="425" fill="#333333"/>
<rect width="1647" height="850" rx="425" fill="#333333"/>
<rect x="50" y="50" width="894" height="750" rx="375" fill="white"/>
<path fill-rule="evenodd" clip-rule="evenodd" d="M443.39 239.159C472.807 200.19 513.705 200 513.705 200C513.705 200 519.787 236.638 490.564 271.932C459.359 309.62 423.89 303.452 423.89 303.452C423.89 303.452 417.23 273.813 443.39 239.159Z" fill="#999999"/>
<path fill-rule="evenodd" clip-rule="evenodd" d="M427.632 329.118C442.767 329.118 470.853 308.209 507.413 308.209C570.346 308.209 595.102 353.217 595.102 353.217C595.102 353.217 546.681 378.099 546.681 438.474C546.681 506.583 607 530.055 607 530.055C607 530.055 564.835 649.339 507.882 649.339C481.723 649.339 461.386 631.621 433.824 631.621C405.738 631.621 377.864 650 359.711 650C307.703 650 242 536.849 242 445.895C242 356.407 297.614 309.463 349.777 309.463C383.687 309.463 410.003 329.118 427.632 329.118Z" fill="#999999"/>
<path d="M1052.81 346.079C1037.32 346.079 1025 358.413 1025 373.913V489.855C1025 505.356 1037.32 517.69 1052.81 517.69C1068.3 517.69 1080.62 505.356 1080.62 489.855V373.913C1080.62 358.413 1068.3 346.079 1052.81 346.079ZM1377.19 346.079C1361.7 346.079 1349.38 358.413 1349.38 373.913V489.855C1349.38 505.356 1361.7 517.69 1377.19 517.69C1392.68 517.69 1405 505.356 1405 489.855V373.913C1405 358.413 1392.68 346.079 1377.19 346.079Z" fill="#3DDC84"/>
<path d="M1168.66 478.389C1153.17 478.389 1140.85 490.723 1140.85 506.223V622.165C1140.85 637.666 1153.17 650 1168.66 650C1184.15 650 1196.47 637.666 1196.47 622.165V506.223C1196.47 490.723 1184.15 478.389 1168.66 478.389ZM1261.34 478.389C1245.85 478.389 1233.53 490.723 1233.53 506.223V622.165C1233.53 637.666 1245.85 650 1261.34 650C1276.83 650 1289.15 637.666 1289.15 622.165V506.223C1289.15 490.723 1276.83 478.389 1261.34 478.389Z" fill="#3DDC84"/>
<path d="M1137.99 200C1137.34 200.007 1136.72 200.177 1136.12 200.512C1134.14 201.612 1133.48 203.893 1134.59 205.883L1154.18 241.305C1116.48 260.934 1091.02 298.237 1090.97 341.049H1339.03C1338.97 298.237 1313.51 260.934 1275.82 241.305L1295.41 205.883C1296.51 203.893 1295.86 201.612 1293.88 200.512C1293.27 200.177 1292.66 200.006 1292 200C1290.6 199.987 1289.26 200.69 1288.51 202.046L1268.66 237.852C1252.43 230.644 1234.22 226.599 1215 226.599C1195.78 226.599 1177.57 230.644 1161.33 237.852L1141.49 202.046C1140.74 200.69 1139.4 199.987 1137.99 200ZM1090.97 350.853V530.776C1090.97 547.401 1104.35 560.785 1120.96 560.785H1309.04C1325.65 560.785 1339.03 547.401 1339.03 530.776V350.853H1090.97Z" fill="#3DDC84"/>
<path d="M1157.76 274.894C1152.09 274.894 1147.41 279.584 1147.41 285.252C1147.41 290.919 1152.09 295.61 1157.76 295.61C1163.42 295.61 1168.11 290.919 1168.11 285.252C1168.11 279.584 1163.42 274.894 1157.76 274.894ZM1272.24 274.894C1266.58 274.894 1261.89 279.584 1261.89 285.252C1261.89 290.919 1266.58 295.61 1272.24 295.61C1277.9 295.61 1282.59 290.919 1282.59 285.252C1282.59 279.584 1277.9 274.894 1272.24 274.894Z" fill="#333333"/>
</svg>
