<svg width="58" height="34" viewBox="0 0 58 34" fill="none" xmlns="http://www.w3.org/2000/svg">
<path d="M0.0150002 15.243C2.123 15.119 2.774 14.065 2.774 12.825C2.774 9.911 1.906 7.834 1.906 5.075C1.906 2.006 3.394 0.269999 6.68 0.269999C7.393 0.269999 8.23 0.362999 8.85 0.610998L8.478 3.184C8.075 3.06 7.703 2.967 7.114 2.967C5.75 2.967 5.285 3.928 5.285 5.168C5.285 7.803 6.06 9.88 6.06 12.422C6.06 14.53 5.161 16.204 3.084 16.762V16.886C5.161 17.444 6.06 19.087 6.06 21.195C6.06 23.737 5.285 26.093 5.285 28.728C5.285 29.968 5.75 30.929 7.114 30.929C7.703 30.929 8.075 30.836 8.478 30.712L8.85 33.254C8.23 33.533 7.579 33.595 6.897 33.595C3.58 33.595 1.906 31.89 1.906 28.821C1.906 26.062 2.774 23.706 2.774 20.823C2.774 19.583 2.123 18.498 0.0150002 18.374V15.243ZM11.3755 2.502V22.063C11.3755 24.698 12.8635 26.248 15.4985 26.248C16.3975 26.248 17.1105 26.093 17.6995 25.845V22.776C17.4825 22.869 17.2035 22.931 16.7695 22.931C15.7465 22.931 15.1885 22.435 15.1885 21.071V2.502H11.3755ZM30.3076 2.254C29.5946 2.068 28.7886 1.913 27.5486 1.913C23.6116 1.913 21.8446 4.207 21.8446 6.997V8.733H19.1166V11.461H21.7826V26H25.5956V11.461H29.6876V8.733H25.6576V7.059C25.6576 5.726 26.1846 5.075 27.6106 5.075C28.3236 5.075 29.0366 5.168 29.7186 5.385L30.3076 2.254ZM46.4867 14.065C46.4557 10.19 44.4717 8.33 41.0617 8.33C38.9227 8.33 37.1557 9.415 36.3187 10.438H36.1947L35.4197 8.733H32.4747V26H36.2877V14.034C36.8457 12.639 38.1477 11.616 39.7907 11.616C41.6507 11.616 42.6427 12.794 42.6427 14.902V26H46.4867V14.065ZM57.6677 15.243C55.5907 15.119 54.9397 14.065 54.9397 12.825C54.9397 9.911 55.7767 7.834 55.7767 5.075C55.7767 2.006 54.3197 0.269999 51.0027 0.269999C50.3207 0.269999 49.4837 0.362999 48.8327 0.610998L49.2357 3.184C49.6077 3.06 50.0107 2.967 50.5687 2.967C51.9327 2.967 52.4287 3.928 52.4287 5.168C52.4287 7.803 51.6227 9.88 51.6227 12.422C51.6227 14.53 52.5217 16.204 54.5987 16.762V16.886C52.5217 17.444 51.6227 19.087 51.6227 21.195C51.6227 23.737 52.4287 26.093 52.4287 28.728C52.4287 29.968 51.9327 30.929 50.5687 30.929C50.0107 30.929 49.6077 30.836 49.2357 30.712L48.8327 33.254C49.4837 33.533 50.1037 33.595 50.8167 33.595C54.1027 33.595 55.7767 31.89 55.7767 28.821C55.7767 26.062 54.9397 23.706 54.9397 20.823C54.9397 19.583 55.5907 18.498 57.6677 18.374V15.243Z" fill="#343A40"/>
</svg>
